<?xml version="1.0" ?><!DOCTYPE svg  PUBLIC '-//W3C//DTD SVG 1.1//EN'  'http://www.w3.org/Graphics/SVG/1.1/DTD/svg11.dtd'><svg height="422.861px" style="enable-background:new 41.143 44.889 424.16 422.861;" version="1.1" viewBox="41.143 44.889 424.16 422.861" width="424.16px" xml:space="preserve" xmlns="http://www.w3.org/2000/svg" xmlns:xlink="http://www.w3.org/1999/xlink"><g id="Layer_1"><g id="Layer_1_1_"/></g><g id="_x31_41-git"><g><g><path d="M149.23,427.528c-4.892,0-9.678-0.532-13.713-1.053c-6.284-0.812-12.188-2.535-18.048-5.271l-1.596-0.745l-0.774-0.773     c-0.015-0.009-0.03-0.017-0.045-0.025c-0.913-0.514-2.442-1.373-3.914-2.845l-0.353-0.353l-0.316-0.387     c-6.267-7.659-8.503-17.962-5.981-27.56c2.4-9.133,8.893-17.115,17.369-21.354l0.015-0.007l-15.234-6.976h45.86     c9.979,0,20.482,2.614,30.373,7.56l0.673,0.369l1.067,0.636c5.264,3.122,13.193,7.825,14.982,17.777     c2.598,12.165-2.46,24.475-13.244,32.178l-0.639,0.456l-0.702,0.351c-4.92,2.46-9.678,4.273-14.141,5.389l-0.586,0.146     l-0.6,0.075c-1.866,0.233-3.769,0.553-5.784,0.892c-3.382,0.568-6.879,1.156-10.586,1.393     C151.995,427.486,150.621,427.528,149.23,427.528z M126.986,403.56c3.616,1.575,7.255,2.585,11.091,3.08     c3.576,0.462,7.403,0.889,11.153,0.889c0.967,0,1.912-0.028,2.81-0.086c2.681-0.172,5.53-0.65,8.547-1.157     c1.926-0.323,3.911-0.657,5.962-0.929c2.69-0.719,5.627-1.847,8.75-3.359c2.222-1.746,5.992-5.656,4.719-11.384l-0.102-0.525     c-0.162-0.972-3.378-2.879-5.506-4.141l-0.797-0.475c-5.141-2.532-10.42-4.19-15.542-4.899c-1.691,1.229-3.647,1.936-5.548,2.127     l-0.999,0.05c-8.868,0-15.229,0.419-21.144,2.524c-3.113,1.719-5.657,4.938-6.547,8.325c-0.797,3.035-0.267,6.262,1.414,8.85     C125.737,402.729,126.339,403.092,126.986,403.56z"/></g><g><g><g><g><path d="M138.48,467.75c-6.337-0.507-12.646-1.447-18.935-2.374c-6.292-0.928-12.492-2.282-18.638-3.957        c-6.086-1.658-12.048-3.745-17.895-6.454c-5.625-2.605-11.29-5.485-16.606-9.352c-3-3-7.182-5.898-10.182-8.898        c-4-6-7.457-12.317-10.457-18.317c-2-7-3.339-12.888-4.339-19.888c-1-8,0.716-16.148,3.716-23.148        c1.672-5.018,4.107-9.988,6.935-14.631c2.822-4.633,6.625-8.531,10.672-12.048c4.024-3.495,8.191-6.724,13.5-8.384        c0.504-5.545-0.198-10.853-1.339-16.398c-1.122-5.454-2.236-10.972-3.228-16.426c-1-9,6.209-15.947,11.209-22.947        c-4.233-4.232-7.982-9.076-11.191-13.96c-3.24-4.931-6.683-9.777-9.07-15.182c-2.375-5.376-3.831-11.154-5.549-16.811        c-1.715-5.648-3.538-11.329-4.786-17.07c0.99-5.941,2.204-11.702,3.684-17.274c1.51-5.683,3.67-11.111,5.69-16.665        c2-5,4.898-9.993,8.898-13.993c3.982-3.733,7.863-7.641,12.216-10.91c4.379-3.288,9.074-6.167,13.83-8.799        c4.78-2.645,9.717-5.101,14.877-6.891c5.109-1.772,10.547-2.498,16.028-3.245c6.249-0.329,12.594-0.811,18.846-0.387        c6.361,0.432,12.583,1.625,18.501,3.505c5.951,1.89,11.538,4.792,16.585,8.83c6.476-0.996,13.016-2.611,19.244-4.724        c6.275-2.129,12.288-4.9,17.809-8.414c5,2,11.838-0.002,12.838,4.998c1.648,5.935,2.542,11.86,3.172,17.795        c0.641,6.031,0.907,12.042,1.094,18.072c0.187,6.034,0.53,12.064,0.865,18.098c1,5-3.097,8.631-8.097,10.631        c-4,1-7.074-0.683-11.074,1.317c3,2,4.923,5.104,5.923,8.104c0,2-0.791,3.921-3.791,4.921        c0.336,6.043,0.486,12.042-0.343,17.86c-0.836,5.865-2.834,11.483-4.931,17.119c-2.019,5.425-4.02,11.07-7.278,16.283        c-3.94,6.402-9.336,11.313-15.104,15.283c-5.944,4.091-12.632,7.091-19.23,9.629c-5.53,1.508-12.076,1.62-18.23,2.637        c-6.087,1.005-11.765,2.797-15.743,8.267c-2,3,0.695,5.27,2.695,7.27c6.447,3.968,13.033,6.429,19.602,8.421        c6.677,2.024,13.615,3.074,20.672,5.091c5.505,1.501,10.798,4.235,16.053,6.989c5.245,2.748,10.31,5.789,14.806,9.286        c3,3,5.785,6.139,8.785,9.139c1,2,1.243,2.819,3.243,4.819c1,1,1.312,1.811,1.312,2.811c1,1,2.229,0.994,2.229,1.994        c1.735,5.454,2.01,11.122,2.454,16.639c0.453,5.62,0.651,11.225-0.109,16.781c-0.757,5.535-2.479,10.885-4.312,16.229        c-1.806,5.266-3.378,10.792-6.105,15.75c-2,2-3.206,4.904-5.206,6.904c-3.739,4.329-8.196,7.6-12.68,10.587        c-4.617,3.075-9.573,5.391-14.751,7.322c-5.133,1.916-10.428,3.386-15.885,4.454c-5.399,1.057-10.895,1.568-16.39,2.063        c-5.554,0.501-11.086,0.919-16.511,1.12C138.352,467.232,138.48,467.75,138.48,467.75z M139.455,164.747        c-5.512-1.002-11.05-1.364-16.515-0.609c-5.475,0.757-10.911,2.207-15.991,4.474c-5.045,2.252-9.848,5.22-14.161,8.714        c-4.31,3.492-7.928,7.773-11.167,12.258c-4.029,6.043-7.082,12.35-8.95,19.028c-1.842,6.583-2.942,13.498-1.453,20.944        c1.33,6.65,3.781,13.324,6.769,19.607c3.01,6.329,7.116,11.93,12.033,16.688c4.882,4.725,10.558,8.486,17.542,10.481        c1,1,1.619,2.327,2.619,3.327c0,1,0.638,0.841,0.638,1.841c0,2-4.236,1.832-3.236,1.832c3,2,3.799,4.022,1.799,6.022        c-3,2-5.06,2.792-8.06,3.792c-3,2-5.206,6.332-5.206,9.332c-0.491,5.894-1.175,12.996-0.871,19.406        c0.315,6.642,2.036,12.732,9.16,15.785c2,2,5.262,2.942,3.262,7.942c0-2-2.937,0.888-2.937-2.112c0,5,0.71,9.825-4.29,11.825        c-4.96,1.323-10.232,3.056-15.197,5.288c-5.011,2.252-9.396,5.443-13.081,9.14c-3.705,3.717-6.475,8.068-7.482,13.773        c-1,8,0.186,14.909,1.186,21.909c1.316,6.253,3.382,11.951,6.942,16.652c3.664,4.839,8.582,8.576,13.856,11.693        c5.17,3.058,10.841,5.459,16.819,6.787c5.768,1.393,11.604,2.659,17.483,3.506c5.9,0.85,11.856,1.266,17.773,1.423        c5.964,0.159,11.917-0.087,17.8-0.777c5.897-0.692,11.771-1.734,17.489-3.428c5.631-1.668,11.241-3.786,16.604-6.567        c6-4,10.099-9.114,13.099-15.114c2.014-4.532,3.06-9.679,3.681-14.843c0.612-5.09,0.967-10.35,0.47-15.313        c-1-7.496-4.226-14.078-8.722-19.327c-4.501-5.254-10.575-9.392-17.579-11.893c-1,0-1.065-1.801-2.065-1.801        c-6.54-2.013-12.946-3.657-19.234-5.797c-6.212-2.113-12.217-4.881-18.677-7.365c-1-1-3.326-1.376-5.326-2.376        c-7-4-10.99-10.265-14.99-16.265c-1-2-1.932-5.061-2.932-7.061c-3-6,0.925-13.239,4.925-18.239c3-4,6.201-6.923,11.201-7.923        c1,0,1.072-1.517,2.072-1.517c6-1,11.018-4.094,17.018-4.094c-2-1-3.219,2.61-6.219-1.39c5.74-0.338,11.527-1.163,16.733-3.21        c5.205-2.045,10.063-5.103,14.582-8.624c4.349-3.39,8.571-7.282,12.145-11.831c3-4,3.763-7.187,6.763-11.187        c2-3,1.684-7.188,3.684-10.188c3-6,3.75-12.906,4.75-18.906c0-7-8.247-12.796-2.247-19.796        c0.606-0.971-1.331-1.199-1.331-2.199c1-1,2.407-1.968,3.407-2.968c0-0.5-1.843-0.483-1.343-0.483        c2,0,3.949,0.227,5.949,0.227c3-1,6.185-2.626,9.185-1.626c0-4.431,0.391-9.25-0.079-13.688        c-0.484-4.577-1.982-9.095-5.029-12.648c-5.98,2.492-12.323,4.549-18.676,5.925c-6.395,1.385-12.799,2.021-19.32,1.018        c-3,0-4.796-0.995-7.796-3.995c-4.029-3.021-9.087-4.578-14.127-5.57c-4.967-0.979-10.029-0.691-14.993,0.301        C139.492,164.989,139.455,164.747,139.455,164.747z"/></g></g><g><g><path d="M135.534,266.79c-5.692,0.67-11.197-0.853-16.065-3.395c-4.832-2.522-9.018-6.373-12.301-10.879        c-3.289-4.514-5.303-9.739-6.302-15.065c-0.499-5.99-1.179-11.724-0.433-17.34c0.749-5.635,2.175-11.335,4.679-16.844        c2-2,2.604-4.61,4.604-6.61c3.258-5.212,7.436-8.86,12.189-11.383c5.033-2.671,10.479-3.818,16.231-3.632        c5.49,0.178,11.155,1.122,16.423,3.756c1,1,3.013,2.006,5.013,3.006c6,5,9.604,10.226,12.604,17.226        c2.035,5.597,2.94,11.348,2.537,17.332c-0.39,5.775-1.252,11.71-1.743,17.604c-1,5-2.377,10.008-5.377,14.008        c-3.977,4.971-9.092,7.971-14.553,9.851c-5.527,1.902-11.489,2.173-17.525,1.67        C135.369,266.087,135.534,266.79,135.534,266.79z M137.542,203.79c-7,1-13.038,4.712-15.038,10.712        c-3,8-2.063,17.025,0.937,25.025c1,1,1.894,2.304,2.894,3.304c7,3,16.037,4.381,23.037,1.381c2-1,2.685-3.8,3.685-5.8        c1-8,0.709-15.929,0.709-23.929c-1-7-9.282-11.369-16.282-11.369C137.338,203.12,137.542,203.79,137.542,203.79z"/></g></g><g><g><path d="M413.51,361.613c-6.079,0.507-12.354-0.025-18.557-1.065c-6.041-1.013-11.896-2.781-17.323-6.235        c-1-1-2.884-2.182-4.884-3.182c-3.915-2.937-7.766-5.328-10.958-8.382c-3.329-3.186-6.629-6.515-9.692-10.089        c-1.005-6.7-1.387-13.687-2.28-20.537c-0.885-6.778-2.022-13.559-3.017-20.337c-1-6.816-1.581-13.537-2.915-20.205        c4-6,1.18-13.139,2.18-20.139c0.651-5.534,1.944-10.887,2.172-16.243c0.234-5.52-0.197-10.979-0.413-16.385        c-0.219-5.463-0.527-11.049-1.205-16.474c-4,2-9.25,1.559-13.25,1.559c1-1,2.079-1.318,3.079-2.318        c-4-1-8.865-1.066-7.865-5.066c0.988-6.915,2.356-13.834,2.501-20.628c0.147-6.962-0.708-13.992-3.238-20.571        c-0.473-0.881-1.164,0.364-2.164,0.364c4-3,5.94-7.939,8.94-11.939c7-1,13.048-0.136,20.048-0.136        c-2-8-3.257-17.075-9.257-23.075c3-3,4.332-7.706,9.332-9.706c0.565-0.424-1.872-0.974-1.201-1.199        c5.966-0.663,11.773-1.349,17.593-1.498c5.906-0.152,11.783-0.037,17.689,0.038c5.831,0.074,11.714,0.156,17.692,0.156        c5,1,9.949,1.199,13.949,5.199c0.363,0.606-1.11,0.272-1.11,0.979c1,1,2.723,1.789,1.723,3.789s-3.97,3.211-3.97,4.211        c0,9,4.609,16.972-1.391,24.972c7.024,0,13.58,0.335,20.354,0.207c6.727-0.127,13.423-0.885,20.398-2.38        c3,0,7.01,2.205,8.01,6.205c0,2,0.239,4.031,0.239,6.031c-1.499,7.496-1.255,14.711-0.506,21.957        c0.75,7.254,1.416,14.488,0.916,21.992c0,4-3.905,6.602-7.905,7.602c-0.588,0.393,2.06,1.6,1.378,1.786        c-6.516,0.501-13.183,0.077-19.697-0.676c-6.485-0.75-12.901-2.178-19.387-2.677c2,5,2.232,8.988,2.232,13.988        c-0.25,5.75-0.986,11.489-1.486,17.238c-0.499,5.74-1.129,11.475-1.627,17.214c-0.5,5.75-1.091,11.497-1.341,17.246        c-0.252,5.762-0.12,11.536,0.13,17.298c0,6,6.023,8.277,10.023,11.277c7-1,12.981-4.452,17.981-9.452        c5,1,12.212,1.132,14.212,6.132c0,2-2.553,2.904-3.553,4.904c0,1,1.86-0.005,2.657,0.925c4,7,2.863,15.203,3.863,23.203        c0,5,1.208,11.055-2.792,16.055c3,2,1.39,5.662-0.61,7.662s-4.563,1.653-6.563,1.653c-8,4-16.138,6.688-25.138,8.688        c-5,0-8.839,2.661-13.839-0.339C413.618,361.182,413.51,361.613,413.51,361.613z M374.612,198.521        c-1.015,5.411-2.214,10.76-2.736,16.21c-0.518,5.408-0.699,10.876-1.111,16.398c-0.4,5.368-1.053,10.774-1.705,16.32        c-1,9-0.364,18.197-4.364,26.197c-0.735,0.979-1.762-0.172-1.762,0.828c0.499,7.479,0.956,14.758,2.449,21.864        c1.502,7.145,3.749,14.091,6.256,21.11c3,8,7.691,16.403,15.691,20.403c5.536,2.517,11.784,2.721,17.951,3.218        c6.086,0.49,12.24,1.351,18.2,1.848c5,0,10.002-2.433,13.002-5.433c4-5,0.215-10.985,0.215-16.985c0-1,0.568-2.65,0.568-3.65        c-3-1-5.745,0.745-8.745,1.745c-5.967,0.994-12.172,0.334-17.649-1.762c-5.539-2.118-9.95-6.024-12.967-11.556        c-2.492-4.486-4.011-8.813-4.763-13.423c-0.757-4.639-0.892-9.312-0.39-14.326c0.739-5.912,1.553-11.696,2.309-17.426        c0.773-5.863,1.431-11.677,2-17.475c0.572-5.826,0.693-11.673,0.832-17.563c0.136-5.773,0.507-11.628,0.011-17.587        c0-3,0.724-6.945-2.276-8.945c4-2,5.677-6.149,7.677-10.149c1-1,2.223-2.03,3.223-2.03c6.985,1.497,13.704,1.966,20.44,2.341        c6.764,0.376,13.551,0.827,20.565,1.829c-3-7-1.947-15.138-4.947-22.138c-6.468,0-13.225-0.354-19.817-0.97        c-6.659-0.622-13.078-1.759-19.108-4.271c-4-2-6.372-8.701-2.372-12.701c-1-7,2.252-13.98,1.252-20.98        c-6-0.5-11.79-0.509-17.54-0.509s-11.512,0.03-17.512,0.53c1,3,3.23,4.986,4.23,7.986c0,4-4.254,8.038-3.254,11.038        c0,2,2.668,4.05,2.668,6.05c2,11-12.79,6.471-19.79,8.471c1,0,1.53,1.566,1.53,2.566c-2,7-0.929,13.996-5.929,19.996        c4-1,8.562-3.113,12.562-1.113c0-1-1.117-1.199-1.117-2.199c4-1,4.1,3.271,7.1,4.271c1,0,1.975-0.937,2.975-0.937        c5,2,8.796,5.768,7.796,11.768c-1-2-3.726,0.187-3.726-2.813c2,2-3.16,3.188-2.16,4.188c1,0,3.131-0.44,4.131-0.44        C374.561,198.315,374.612,198.521,374.612,198.521z"/></g></g><g><g><path d="M280.52,131.061c-5.721-0.249-11.347-1.353-16.574-3.722c-5.243-2.376-9.822-5.864-13.825-9.908        c-4.068-4.109-7.243-8.808-9.254-14.154c-1.97-5.236-3.115-10.819-2.37-16.778c0.503-6.039,2.586-11.689,5.446-16.918        c2.866-5.242,6.69-9.851,11.314-13.671c4.604-3.802,9.689-7.168,15.431-8.959c5.609-1.749,11.728-2.52,17.856-1.785        c7,1,12.975,5.315,17.975,9.315c1,2,2.985,3.015,4.985,5.015c3.984,4.482,7.533,9.594,9.659,15.195        c2.142,5.644,3.075,11.811,2.573,17.834c-1,8-5.345,14.886-10.345,20.886c-4.051,5.063-8.898,9.468-14.487,12.728        c-5.449,3.178-11.507,5.597-18.419,5.597C280.266,131.721,280.52,131.061,280.52,131.061z M282.572,66.066        c-6.123-1.021-11.623,1.419-15.918,5.186c-4.123,3.616-7.594,8.892-9.553,14.279c3,8,6.185,17.269,13.185,23.269        c7,4,15.211,1.697,21.211-2.303c6-5,13.279-11.045,12.279-20.045c-2-8-8.114-13.168-14.114-18.168        c-2-1-4.194-1.566-7.194-1.566C282.25,66.685,282.572,66.066,282.572,66.066z"/></g></g><g><g><path d="M304.5,360.805c2,0,3.958-0.326,5.958-0.326c-1-2-2.88-0.514-3.88-0.514c-5.067,1.014-10.095,0.363-15.05,0.318        c-4.974-0.045-9.954,0.258-15.048,0.237c-4.853-0.021-9.909-0.445-15.078,0.523c-4,1-6.902-0.11-10.902-0.11        c-3,0-4.073-4.36-6.073-5.36c-1-2-2.722-4.142-2.722-6.142c-3-7-1.39-13.925-1.39-20.925        c-0.503-6.033-0.771-12.098-0.877-18.177c-0.104-6.05,0.338-12.115,0.525-18.193c0.186-6.054,0.231-12.126,0.605-18.189        c0.374-6.054,1.34-12.069,1.801-18.114c0.462-6.06,0.114-12.173,0.562-18.205c0.451-6.074,0.95-12.116,1.285-18.143        c0.252-5.286,0.838-10.62,0.852-16c0.014-5.319-0.315-10.667-0.502-16.017c-0.187-5.343-0.864-10.658-1.221-15.971        c-0.36-5.365-0.761-10.706-1.263-15.976c0-4,5.088-4.187,7.088-7.187c0-1-0.533-1.312,0.248-1.937        c5-3,10.151,1.468,16.151,0.468c6.89-1.477,13.714-1.939,20.484-1.813c6.987,0.13,13.855,0.342,20.458-1.689        c4,3,7.987,5.595,12.987,4.595c-1,1-1.916,2.541-1.916,3.541c0,4.508,0.607,9.233,0.983,13.992        c0.375,4.741,0.383,9.52,0.882,14.011c0.168,6.369,0.526,12.765,0.493,19.181c-0.033,6.378-0.128,12.782-0.314,19.188        c-0.185,6.384-1.025,12.755-1.316,19.148c-0.29,6.39-0.716,12.771-1.066,19.152c-0.351,6.396-0.776,12.779-1.142,19.148        c-0.367,6.406-0.201,12.824-0.536,19.184c-0.335,6.029-0.544,12.172-0.356,18.351c0.186,6.099,0.751,12.226,1.154,18.325        c0.409,6.167,0.953,12.322,1.287,18.341c-1-1-2.854-2.17-4.854-0.17c4,2,3.051,6.429,1.051,9.429        c-2,2-6.389,2.888-9.389,1.888C304.313,360.633,304.5,360.805,304.5,360.805z M259.669,340.754c3-2,6.837-1.301,9.837-1.301        c4.992,0.998,9.718,0.575,14.46,0.451c4.758-0.125,9.836,0.349,14.844,0.85c-0.695-5.763-1.721-11.756-2.071-17.501        c-0.354-5.78,0.127-11.57,0.061-17.337c-0.065-5.782-0.902-11.564-0.741-17.337c0.16-5.775,0.75-11.54,1.074-17.31        c0.325-5.766,1.034-11.509,1.46-17.272c0.426-5.759,0.487-11.548,0.952-17.309c0.465-5.756,0.941-11.513,1.383-17.275        c0.44-5.758,1.23-11.496,1.586-17.264c0.355-5.763,0.394-11.546,0.603-17.324c0.208-5.767,0.735-11.85,0.735-17.635        c-5.985-0.997-12.585-0.825-18.819-1.075c-6.266-0.252-12.304-0.428-18.318-0.428c0.574,6.172,0.531,12.182,0.699,18.39        c0.168,6.189,0.392,12.389,0.25,18.602c-0.142,6.19-0.016,12.413-0.372,18.615c-0.354,6.188-0.833,12.384-1.309,18.572        c-0.477,6.188-1.04,12.37-1.546,18.546c-0.506,6.193-1.24,12.357-1.684,18.527c-0.446,6.207-1.338,12.369-1.625,18.541        c-0.333,4.996,0.021,10.031-0.274,15.027c-0.297,4.999-0.734,9.985-0.92,14.984c-0.186,5.005-0.892,10.019-0.892,15.023        C259.046,340.667,259.669,340.754,259.669,340.754z"/></g></g></g></g></g></g></svg>