<svg width="18" height="18" viewBox="0 0 18 18" fill="none" xmlns="http://www.w3.org/2000/svg">
<path d="M16.2 7.79999H11.4C10.7373 7.79999 10.2 7.26273 10.2 6.59999V2.99999C10.2 2.33725 10.7373 1.79999 11.4 1.79999H15C15.6627 1.79999 16.2 2.33725 16.2 2.99999V7.79999ZM16.2 7.79999V12C16.2 14.3196 14.3196 16.2 12 16.2M7.8 7.79999H3C2.33726 7.79999 1.8 7.26273 1.8 6.59999V2.99999C1.8 2.33725 2.33726 1.79999 3 1.79999H6.6C7.26274 1.79999 7.8 2.33725 7.8 2.99999V7.79999ZM7.8 7.79999V12C7.8 14.3196 5.91959 16.2 3.6 16.2" stroke="#C5C5C5"/>
</svg>
