<svg width="64" height="65" viewBox="0 0 64 65" fill="none" xmlns="http://www.w3.org/2000/svg">
<g clip-path="url(#clip0_80_146)">
<path d="M21.7671 43.9722C19.6629 42.1023 15.7913 42.7279 14.3296 44.3779C12.8679 46.0278 11.2076 55.8872 11.2076 55.8872C14.9507 54.158 20.8119 53.0354 22.2495 51.4136C23.6872 49.7918 23.8712 45.8398 21.7671 43.9722Z" fill="#F05A2A"/>
<path d="M21.662 44.0919C19.9394 42.5628 16.7775 43.0742 15.583 44.4235C14.3885 45.7728 13.0306 53.8285 13.0306 53.8285C16.0905 52.4164 20.8812 51.4981 22.055 50.1734C23.2287 48.8487 23.3811 45.6199 21.662 44.0919Z" fill="#F8EC3A"/>
<path d="M21.673 44.078C20.3486 42.9009 17.9064 43.2921 16.9936 44.3301C16.0808 45.368 15.0268 51.5774 15.0268 51.5774C17.3891 50.4932 21.075 49.7822 21.9804 48.7593C22.8859 47.7365 22.9975 45.2551 21.673 44.078Z" fill="white"/>
<path d="M19.4286 43.3534C18.3295 41.8409 15.7126 41.6818 14.5173 42.5331C13.322 43.3843 10.8034 49.5091 10.8034 49.5091C13.4954 48.9418 17.4829 49.0669 18.6569 48.2288C19.831 47.3907 20.5276 44.8659 19.4286 43.3534Z" fill="#F05A2A"/>
<path d="M19.3442 43.4175C18.4464 42.1811 16.3074 42.05 15.3297 42.7501C14.352 43.4503 12.291 48.451 12.291 48.451C14.4915 47.9837 17.7494 48.0877 18.7093 47.4018C19.6692 46.7159 20.2406 44.6506 19.3442 43.4175Z" fill="#F8EC3A"/>
<path d="M19.3528 43.4081C18.6639 42.4589 17.013 42.3545 16.2604 42.8907C15.5077 43.4269 13.9197 47.2848 13.9197 47.2848C15.6163 46.9258 18.1271 47.0057 18.8674 46.4778C19.6078 45.95 20.0407 44.3584 19.3528 43.4081Z" fill="white"/>
<path d="M20.3393 43.6096C19.2261 43.204 17.8216 44.0624 17.5219 44.9401C17.2223 45.8178 18.1381 49.9824 18.1381 49.9824C19.3153 48.7071 21.4124 47.3357 21.7125 46.4673C22.0126 45.5988 21.4491 44.0187 20.3393 43.6096Z" fill="#F05A2A"/>
<path d="M20.3168 43.6722C19.4074 43.3424 18.2617 44.0442 18.0102 44.7666C17.7587 45.489 18.5131 48.8867 18.5131 48.8867C19.4823 47.8486 21.19 46.7232 21.4363 46.0135C21.6826 45.3039 21.2264 44.0043 20.3168 43.6722Z" fill="#F8EC3A"/>
<path d="M20.3201 43.6664C19.6189 43.41 18.7375 43.9492 18.5419 44.5082C18.3463 45.0671 18.9304 47.6831 18.9304 47.6831C19.6768 46.8836 20.9923 46.0169 21.1815 45.4696C21.3707 44.9223 21.0201 43.9217 20.3201 43.6664Z" fill="white"/>
<path d="M25.4002 29.7537C25.4002 29.7537 21.5411 28.8066 17.9472 30.147C13.3866 31.848 8.40928 36.3307 8.74433 37.2179C9.07939 38.105 12.0089 36.4568 14.5387 36.2464C18.7233 35.8953 20.3751 37.6906 20.3751 37.6906L25.4002 29.7537Z" fill="#C6421E"/>
<path d="M34.9709 38.6894C34.9709 38.6894 36.179 42.4734 35.0881 46.1507C33.7038 50.8172 29.5692 56.0867 28.6626 55.819C27.756 55.5513 29.1981 52.51 29.2346 49.9716C29.298 45.7729 27.3937 44.248 27.3937 44.248L34.9709 38.6894Z" fill="#AA290B"/>
<path d="M23.9044 48.395C24.9906 47.8005 32.5568 43.5189 39.5872 35.9888C45.4048 29.7577 45.0214 22.7983 44.426 18.9725C40.5695 18.6397 33.5935 18.739 27.7803 24.9653C20.7499 32.4955 16.9971 40.3374 16.4784 41.4617L23.9044 48.395Z" fill="#2B2B38"/>
<path d="M29.399 20.084C20.4982 29.6175 17.6281 37.531 16.9711 38.9553L26.3712 47.7316C27.7483 46.9797 35.4464 43.5738 44.3473 34.0404C48.2703 29.8385 50.6415 24.6477 51.8865 19.9811L42.9072 11.5976C38.3381 13.1608 33.3221 15.8822 29.399 20.084Z" fill="#F0F1F1"/>
<path d="M52.8479 9.94236C50.5617 9.73992 46.9071 10.2248 42.9023 11.5931L51.8816 19.9766C52.977 15.892 53.2066 12.2093 52.8479 9.94236Z" fill="#C6421E"/>
<path d="M51.8864 19.9811L47.3926 15.7855L21.6658 43.3407L26.3652 47.7283C27.7423 46.9764 35.4404 43.5706 44.3413 34.0371C48.2702 29.8386 50.6402 24.6467 51.8864 19.9811Z" fill="#D0D2D3"/>
<path d="M43.5398 19.9121C42.9031 19.3176 42.1082 18.9211 41.2558 18.7727C40.4033 18.6244 39.5316 18.7308 38.7508 19.0786C37.97 19.4264 37.3152 19.9999 36.8692 20.7266C36.4232 21.4534 36.2061 22.3006 36.2452 23.1613C36.2844 24.022 36.5781 24.8575 37.0892 25.5621C37.6003 26.2666 38.3058 26.8087 39.1166 27.1196C39.9274 27.4306 40.807 27.4965 41.6441 27.309C42.4813 27.1215 43.2384 26.6891 43.8198 26.0664C44.5994 25.2314 45.0079 24.1139 44.9554 22.9597C44.9029 21.8056 44.3937 20.7093 43.5398 19.9121Z" fill="#A5DCF0"/>
<path d="M42.1915 28.025C43.1634 27.7294 44.0192 27.1507 44.6508 26.362C45.2824 25.5734 45.6614 24.6102 45.7398 23.5942C45.8182 22.5783 45.5926 21.5552 45.0915 20.6544C44.5903 19.7535 43.8361 19.0154 42.9243 18.5332C42.0124 18.0511 40.9839 17.8466 39.9686 17.9457C38.9534 18.0448 37.9971 18.4429 37.2206 19.0898C36.4442 19.7366 35.8824 20.6032 35.6064 21.5799C35.3304 22.5566 35.3525 23.5995 35.67 24.5768C36.0961 25.8875 37.0226 26.987 38.2455 27.6336C39.4685 28.2803 40.8879 28.421 42.1915 28.025ZM41.8367 26.9324C41.0794 27.1621 40.2658 27.1608 39.4989 26.9287C38.732 26.6965 38.0462 26.244 37.5283 25.6283C37.0103 25.0127 36.6835 24.2615 36.5891 23.4698C36.4947 22.6781 36.637 21.8815 36.998 21.1807C37.359 20.4799 37.9224 19.9063 38.6171 19.5326C39.3118 19.1589 40.1065 19.0018 40.9007 19.0811C41.6949 19.1605 42.4529 19.4727 43.0789 19.9784C43.7049 20.4841 44.1708 21.1604 44.4176 21.922C44.7484 22.943 44.6624 24.0444 44.1785 24.9841C43.6945 25.9237 42.8521 26.6245 41.8367 26.9324Z" fill="#2B2B38"/>
<path opacity="0.3" d="M41.9511 27.2922C42.7768 27.0406 43.5038 26.5486 44.0404 25.8783C44.5769 25.208 44.8988 24.3896 44.9655 23.5263C45.0322 22.6631 44.8407 21.7937 44.4151 21.0281C43.9895 20.2625 43.349 19.635 42.5744 19.2249C41.7999 18.8147 40.926 18.6403 40.0633 18.7237C39.2005 18.8071 38.3876 19.1445 37.7271 19.6934C37.0667 20.2422 36.5884 20.9779 36.3526 21.8074C36.1168 22.6369 36.1342 23.5231 36.4025 24.354C36.581 24.9069 36.8663 25.4216 37.242 25.8687C37.6176 26.3157 38.0763 26.6863 38.5917 26.9593C39.1072 27.2322 39.6692 27.4021 40.2457 27.4592C40.8221 27.5163 41.4017 27.4596 41.9511 27.2922Z" fill="#E6E6E7"/>
<path opacity="0.5" d="M37.2577 21.6253C37.5652 20.9332 38.0889 20.3625 38.7519 19.9968C39.415 19.6311 40.1826 19.4896 40.9425 19.593C41.7023 19.6964 42.4145 20.0393 42.9747 20.5714C43.5349 21.1035 43.9137 21.797 44.0558 22.5503C44.0558 22.5503 41.9507 21.7225 40.6126 21.5361C39.2275 21.3519 37.2577 21.6253 37.2577 21.6253Z" fill="white"/>
<path d="M29.1551 35.3697C28.5204 34.7771 27.2016 35.3436 25.9986 36.6322C24.7956 37.9207 17.7806 45.7162 18.6967 46.5715C19.6116 47.4257 26.9079 39.8951 28.1121 38.6054C29.3162 37.3157 29.7887 35.9613 29.1551 35.3697Z" fill="#C6421E"/>
<path d="M47.3926 15.7854L51.8828 19.9777C52.977 15.892 53.2066 12.2093 52.8479 9.94237L47.3926 15.7854Z" fill="#AA290B"/>
<path d="M29.1553 35.3698L18.6968 46.5716C19.6117 47.4258 26.9081 39.8952 28.1122 38.6055C29.3163 37.3158 29.7888 35.9614 29.1553 35.3698Z" fill="#AA290B"/>
</g>
<defs>
<clipPath id="clip0_80_146">
<rect width="28" height="62" fill="white" transform="translate(42.6172 0.390503) rotate(43.0346)"/>
</clipPath>
</defs>
</svg>
